<svg width="53" height="53" viewBox="0 0 53 53" fill="none" xmlns="http://www.w3.org/2000/svg">
<path d="M46.0935 20.2062C46.4053 19.9265 46.6449 19.5757 46.792 19.1835C46.939 18.7913 46.9892 18.3694 46.9382 17.9537C46.8984 17.5727 46.7466 17.2119 46.5019 16.9172C46.2573 16.6224 45.9307 16.4067 45.5635 16.2974C45.2563 16.5771 45.0197 16.9255 44.8729 17.3141C44.7261 17.7027 44.6733 18.1205 44.7188 18.5334C44.7576 18.9167 44.9087 19.2799 45.1533 19.5776C45.3979 19.8752 45.725 20.0939 46.0935 20.2062ZM47.1038 21.1171C46.7657 21.3996 46.5005 21.7592 46.3304 22.1656C46.1604 22.572 46.0905 23.0134 46.1266 23.4524C46.5556 23.4901 46.9877 23.4364 47.3944 23.2949C47.8011 23.1534 48.1732 22.9273 48.4862 22.6316C48.7992 22.3358 49.046 21.9771 49.2102 21.579C49.3744 21.1809 49.4525 20.7526 49.4391 20.3221C49.0149 20.2649 48.5832 20.3069 48.1779 20.4449C47.7727 20.5828 47.405 20.8129 47.1038 21.1171ZM45.7126 23.3696C45.8224 22.9737 45.8202 22.555 45.7062 22.1602C45.5921 21.7654 45.3707 21.4101 45.0666 21.1337C44.7624 20.8525 44.3875 20.6593 43.982 20.5747C43.5765 20.4901 43.1557 20.5173 42.7644 20.6534C42.6487 21.0476 42.6463 21.4664 42.7576 21.8618C42.8689 22.2573 43.0894 22.6134 43.3938 22.8893C43.7015 23.1703 44.0792 23.3633 44.4872 23.4478C44.8953 23.5323 45.3186 23.5053 45.7126 23.3696ZM45.7291 26.2349C45.3168 26.495 44.9704 26.8473 44.7175 27.2641C44.4646 27.6808 44.3119 28.1507 44.2716 28.6365C44.727 28.7797 45.2103 28.8108 45.6803 28.7272C46.1504 28.6436 46.5932 28.4477 46.9713 28.1562C47.3811 27.8933 47.7254 27.5403 47.978 27.1241C48.2306 26.7079 48.3848 26.2395 48.4288 25.7546C47.9739 25.6071 47.4898 25.5738 47.019 25.6575C46.5482 25.7413 46.1052 25.9396 45.7291 26.2349ZM43.841 28.4543C44.0288 28.0434 44.1019 27.5892 44.0523 27.1401C44.0027 26.691 43.8324 26.2638 43.5594 25.9037C43.2891 25.5459 42.9239 25.2709 42.5053 25.1099C42.0868 24.9489 41.6315 24.9083 41.191 24.9928C40.9938 25.3979 40.9097 25.8487 40.9476 26.2977C40.9855 26.7467 41.144 27.1771 41.4063 27.5434C41.6819 27.9129 42.058 28.1952 42.4897 28.3567C42.9215 28.5183 43.3905 28.5521 43.841 28.4543ZM44.3047 31.5515C43.7982 31.7479 43.3419 32.055 42.9693 32.4505C42.5968 32.846 42.3174 33.3197 42.1516 33.8371C42.5791 34.1121 43.0699 34.2731 43.5771 34.305C44.0844 34.3369 44.5915 34.2386 45.0501 34.0193C45.5566 33.823 46.0129 33.5158 46.3855 33.1203C46.758 32.7249 47.0374 32.2511 47.2032 31.7337C46.7775 31.4542 46.2863 31.2904 45.7781 31.2585C45.2699 31.2265 44.7621 31.3275 44.3047 31.5515ZM39.5679 31.9159C39.7295 32.3761 40.0229 32.7785 40.4117 33.073C40.8005 33.3676 41.2674 33.5412 41.7541 33.5721C42.0595 33.1619 42.2574 32.6818 42.3297 32.1756C42.4021 31.6693 42.3465 31.153 42.1682 30.6737C42.0036 30.2122 41.7071 29.8092 41.3155 29.5148C40.9239 29.2203 40.4544 29.0474 39.9654 29.0174C39.6585 29.4271 39.461 29.9081 39.3914 30.4152C39.3219 30.9223 39.3826 31.4387 39.5679 31.9159ZM41.4063 35.9571C40.8787 36.0937 40.388 36.3458 39.9698 36.6953C39.5516 37.0447 39.2163 37.4828 38.9882 37.9778C39.3613 38.3142 39.818 38.544 40.3105 38.643C40.803 38.7421 41.3131 38.7068 41.7872 38.5409C42.3163 38.4083 42.8092 38.1597 43.2303 37.8131C43.6514 37.4665 43.9901 37.0305 44.2219 36.5368C43.8462 36.1992 43.3874 35.9676 42.8926 35.8658C42.3978 35.7639 41.8849 35.7954 41.4063 35.9571ZM37.5969 32.8268C37.2385 33.2019 36.9783 33.6597 36.8396 34.1597C36.7009 34.6596 36.688 35.186 36.8019 35.6921C36.8949 36.1661 37.125 36.6023 37.4636 36.9468C37.8021 37.2912 38.2343 37.5288 38.7066 37.6299C39.0537 37.2507 39.3077 36.7958 39.4486 36.3013C39.5894 35.8069 39.6133 35.2864 39.5182 34.7812C39.4269 34.302 39.1957 33.8606 38.8538 33.5128C38.5118 33.1649 38.0745 32.9262 37.5969 32.8268ZM37.3485 40.0315C36.7624 39.9842 36.1733 40.0732 35.6273 40.2916C35.0814 40.51 34.5934 40.8518 34.2016 41.2903C34.3944 41.798 34.7332 42.2373 35.1754 42.5527C35.6175 42.8681 36.1432 43.0455 36.686 43.0624C37.2734 43.1077 37.8633 43.0161 38.4094 42.7948C38.9554 42.5735 39.4427 42.2286 39.8329 41.7871C39.6357 41.2837 39.2953 40.8491 38.8537 40.5371C38.4122 40.2251 37.8889 40.0493 37.3485 40.0315ZM32.9429 37.9115C32.829 38.4421 32.8699 38.9942 33.0607 39.5021C33.2516 40.0101 33.5843 40.4525 34.0194 40.7768C34.5347 40.4787 34.9755 40.0674 35.3083 39.5738C35.6412 39.0803 35.8574 38.5175 35.9407 37.9281C36.0505 37.3975 36.0076 36.8468 35.8171 36.3396C35.6265 35.8325 35.2961 35.3897 34.8641 35.0628C34.3488 35.3608 33.9081 35.7722 33.5752 36.2657C33.2424 36.7593 33.0261 37.3221 32.9429 37.9115ZM32.0485 42.814C31.4055 42.7602 30.7588 42.8581 30.1604 43.0997C29.5621 43.3413 29.0288 43.72 28.6035 44.2053C28.8221 44.7524 29.1955 45.2239 29.6779 45.5622C30.1603 45.9005 30.7309 46.0908 31.3197 46.1099C31.9647 46.1586 32.6123 46.0585 33.2125 45.8172C33.8126 45.576 34.3494 45.2002 34.7813 44.7187C34.5616 44.169 34.1857 43.6958 33.7 43.3573C33.2144 43.0188 32.6402 42.8299 32.0485 42.814ZM30.5082 40.5118C30.6357 39.9297 30.5925 39.3233 30.3839 38.7651C30.1754 38.2069 29.8102 37.7208 29.3322 37.3649C28.7636 37.6865 28.2767 38.1346 27.909 38.6745C27.5414 39.2145 27.303 39.8318 27.2122 40.4787C27.0936 41.0632 27.1409 41.6692 27.3487 42.2283C27.5565 42.7873 27.9166 43.277 28.3882 43.6421C28.9556 43.315 29.4413 42.8633 29.8085 42.321C30.1758 41.7787 30.415 41.1601 30.5082 40.5118ZM8.2813 18.5334C8.32955 18.1178 8.27809 17.6968 8.1312 17.305C7.98431 16.9133 7.7462 16.5623 7.43661 16.2809C7.06942 16.3901 6.74285 16.6058 6.49817 16.9006C6.25349 17.1954 6.10168 17.5561 6.06193 17.9371C6.0109 18.3529 6.06106 18.7748 6.20812 19.1669C6.35519 19.5591 6.59482 19.91 6.90662 20.1896C7.27272 20.0784 7.59814 19.8622 7.84251 19.5678C8.08688 19.2734 8.23945 18.9137 8.2813 18.5334ZM6.87349 23.4524C6.90963 23.0134 6.83973 22.572 6.66967 22.1656C6.49961 21.7592 6.23437 21.3996 5.8963 21.1171C5.58808 20.8032 5.20941 20.5673 4.79173 20.429C4.37406 20.2907 3.92942 20.2541 3.49474 20.3221C3.4586 20.7612 3.5285 21.2025 3.69856 21.6089C3.86862 22.0154 4.13386 22.375 4.47193 22.6574C4.77853 22.9737 5.15703 23.2111 5.57518 23.3496C5.99334 23.488 6.43875 23.5233 6.87349 23.4524ZM7.28755 23.3696C7.68155 23.5053 8.10482 23.5323 8.51286 23.4478C8.9209 23.3633 9.29862 23.1703 9.6063 22.8893C9.9107 22.6134 10.1312 22.2573 10.2425 21.8618C10.3538 21.4664 10.3515 21.0476 10.2357 20.6534C9.84443 20.5173 9.42357 20.4901 9.01807 20.5747C8.61257 20.6593 8.23769 20.8525 7.93349 21.1337C7.62938 21.4101 7.40797 21.7654 7.29392 22.1602C7.17988 22.555 7.17767 22.9737 7.28755 23.3696ZM8.72849 28.6365C8.68818 28.1507 8.53553 27.6808 8.2826 27.2641C8.02966 26.8473 7.68336 26.495 7.27099 26.2349C6.89343 25.9424 6.44976 25.7471 5.97901 25.6662C5.50826 25.5853 5.02485 25.6214 4.5713 25.7712C4.61775 26.2532 4.77307 26.7183 5.02556 27.1314C5.27804 27.5446 5.62109 27.895 6.0288 28.1562C6.40687 28.4477 6.84975 28.6436 7.31978 28.7272C7.7898 28.8108 8.27307 28.7797 8.72849 28.6365ZM9.15912 28.4543C9.60956 28.5521 10.0786 28.5183 10.5104 28.3567C10.9421 28.1952 11.3182 27.9129 11.5938 27.5434C11.8668 27.1833 12.0371 26.756 12.0867 26.3069C12.1362 25.8578 12.0632 25.4037 11.8754 24.9928C11.4349 24.9083 10.9796 24.9489 10.561 25.1099C10.1424 25.2709 9.77727 25.5459 9.50693 25.9037C9.22318 26.2574 9.04092 26.6815 8.97965 27.1308C8.91839 27.5801 8.98042 28.0376 9.15912 28.4543ZM10.8485 33.8371C10.6827 33.3197 10.4033 32.846 10.0308 32.4505C9.65822 32.055 9.20195 31.7479 8.69536 31.5515C8.23803 31.3275 7.73024 31.2265 7.222 31.2585C6.71376 31.2904 6.22261 31.4542 5.79693 31.7337C5.96271 32.2511 6.2421 32.7249 6.61465 33.1203C6.9872 33.5158 7.44346 33.823 7.95005 34.0193C8.40864 34.2386 8.91566 34.3369 9.42296 34.305C9.93025 34.2731 10.421 34.1121 10.8485 33.8371ZM10.8319 30.6406C10.6536 31.1199 10.598 31.6362 10.6704 32.1424C10.7427 32.6487 10.9406 33.1288 11.246 33.539C11.7327 33.508 12.1996 33.3344 12.5884 33.0399C12.9772 32.7454 13.2706 32.3429 13.4322 31.8828C13.6175 31.4056 13.6782 30.8892 13.6087 30.3821C13.5391 29.875 13.3416 29.394 13.0347 28.9843C12.5457 29.0143 12.0762 29.1872 11.6846 29.4816C11.293 29.7761 10.9965 30.1791 10.8319 30.6406ZM11.5938 35.9571C11.1152 35.7954 10.6023 35.7639 10.1075 35.8658C9.61274 35.9676 9.15396 36.1992 8.77818 36.5368C9.00996 37.0305 9.34867 37.4665 9.76977 37.8131C10.1909 38.1597 10.6838 38.4083 11.2129 38.5409C11.687 38.7068 12.1971 38.7421 12.6896 38.643C13.1821 38.544 13.6388 38.3142 14.0119 37.9778C13.7838 37.4828 13.4485 37.0447 13.0303 36.6953C12.6121 36.3458 12.1214 36.0937 11.5938 35.9571ZM14.2935 37.6299C14.7658 37.5288 15.198 37.2912 15.5365 36.9468C15.8751 36.6023 16.1052 36.1661 16.1982 35.6921C16.3121 35.186 16.2992 34.6596 16.1605 34.1597C16.0218 33.6597 15.7616 33.2019 15.4032 32.8268C14.9256 32.9262 14.4883 33.1649 14.1463 33.5128C13.8044 33.8606 13.5732 34.302 13.4819 34.7812C13.3869 35.2864 13.4107 35.8069 13.5515 36.3013C13.6924 36.7958 13.9464 37.2507 14.2935 37.6299ZM18.7985 41.2903C18.4067 40.8518 17.9187 40.51 17.3728 40.2916C16.8268 40.0732 16.2377 39.9842 15.6516 40.0315C15.1224 40.041 14.6071 40.202 14.1667 40.4956C13.7264 40.7892 13.3795 41.2029 13.1672 41.6878C13.5574 42.1292 14.0447 42.4741 14.5907 42.6954C15.1368 42.9167 15.7267 43.0083 16.3141 42.9631C16.8456 42.9543 17.3631 42.7915 17.8041 42.4946C18.245 42.1978 18.5904 41.7794 18.7985 41.2903ZM18.9807 40.7768C19.4158 40.4525 19.7485 40.0101 19.9394 39.5021C20.1302 38.9942 20.1711 38.4421 20.0572 37.9115C19.9832 37.3295 19.7796 36.7714 19.4615 36.2784C19.1433 35.7854 18.7187 35.37 18.2188 35.0628C17.7868 35.3897 17.4564 35.8325 17.2659 36.3396C17.0753 36.8468 17.0324 37.3975 17.1422 37.9281C17.2163 38.5101 17.4199 39.0682 17.738 39.5612C18.0562 40.0542 18.4808 40.4696 18.9807 40.7768ZM18.2188 44.7187C18.6491 45.2032 19.1852 45.5821 19.7854 45.8263C20.3857 46.0704 21.034 46.1731 21.6804 46.1265C22.2693 46.1074 22.8398 45.9171 23.3222 45.5788C23.8046 45.2405 24.178 44.769 24.3966 44.2218C23.9713 43.7366 23.438 43.3579 22.8397 43.1163C22.2413 42.8746 21.5946 42.7768 20.9516 42.8306C20.3618 42.8451 19.789 43.0315 19.3035 43.3669C18.8181 43.7023 18.4411 44.1721 18.2188 44.7187ZM23.6679 37.3649C23.1899 37.7208 22.8248 38.2069 22.6162 38.7651C22.4076 39.3233 22.3645 39.9297 22.4919 40.5118C22.5851 41.1601 22.8243 41.7787 23.1916 42.321C23.5588 42.8633 24.0445 43.315 24.6119 43.6421C25.0835 43.277 25.4436 42.7873 25.6514 42.2283C25.8592 41.6692 25.9065 41.0632 25.7879 40.4787C25.6971 39.8318 25.4587 39.2145 25.0911 38.6745C24.7234 38.1346 24.2365 37.6865 23.6679 37.3649ZM39.9322 19.8749C39.9322 17.2183 39.1445 14.6213 37.6685 12.4124C36.1926 10.2035 34.0947 8.48187 31.6403 7.46522C29.1859 6.44857 26.4852 6.18257 23.8796 6.70085C21.274 7.21913 18.8806 8.49843 17.0021 10.377C15.1235 12.2555 13.8442 14.6489 13.326 17.2545C12.8077 19.86 13.0737 22.5608 14.0903 25.0152C15.107 27.4696 16.8286 29.5675 19.0375 31.0434C21.2464 32.5193 23.8434 33.3071 26.5001 33.3071C30.0611 33.3027 33.4751 31.8862 35.9932 29.3681C38.5113 26.85 39.9279 23.436 39.9322 19.8749ZM31.0382 26.4999L26.5001 24.1149L21.9619 26.4999L22.8397 21.5312L19.1629 17.9537L24.231 17.2084L26.5001 12.5378L28.7691 17.1256L33.8372 17.8709L30.1604 21.5312L31.0382 26.4999Z" fill="#8DC14B"/>
</svg>
