<svg width="75" height="25" viewBox="0 0 75 25" fill="none" xmlns="http://www.w3.org/2000/svg">
<g clip-path="url(#clip0_55_669)">
<path d="M62.1889 24.3663C59.0871 24.1944 56.7119 21.5408 56.8836 18.439C57.0554 15.3373 59.7093 12.962 62.811 13.1338C65.9129 13.3056 68.288 15.9593 68.1161 19.0611C67.9444 22.1628 65.2907 24.538 62.1889 24.3663Z" stroke="#8DC14B"/>
<path d="M15 13.125C18.0828 13.125 20.6249 15.6671 20.6249 18.75C20.6249 21.8329 18.0828 24.375 15 24.375C11.9171 24.375 9.375 21.833 9.375 18.75C9.375 15.667 11.917 13.125 15 13.125Z" stroke="#8DC14B"/>
<path fill-rule="evenodd" clip-rule="evenodd" d="M0.629712 15.8968C0.629712 15.7323 0.833037 15.6538 1.0271 15.5789C1.20429 15.5105 1.37377 15.445 1.37377 15.3199L1.40392 14.7955C1.50105 13.1003 1.60641 11.2613 1.79896 9.55133C1.99171 7.91574 4.50534 7.41135 6.9668 6.91744C7.89884 6.73041 8.8234 6.54489 9.61165 6.30003C10.7627 5.95053 11.7827 5.37459 12.9174 4.73393C13.8258 4.22098 14.8078 3.66654 15.9893 3.15359L16.2041 3.05938C18.9872 1.83798 21.4862 0.741327 24.4398 0.741327C25.4929 0.741327 26.6546 0.715127 27.8754 0.687602C32.3848 0.585939 37.702 0.466052 41.3407 1.58036C44.3428 2.50831 47.1728 3.9706 49.981 5.42174C51.2991 6.10283 52.6125 6.78151 53.9366 7.40129C58.9858 7.92575 64.6194 8.922 69.7746 10.1806C71.4222 10.6002 72.1664 11.3344 72.6446 12.3306C72.9937 13.0196 73.2281 13.6859 73.4232 14.2404C73.5251 14.5299 73.6164 14.7893 73.7075 15.0051C73.8492 15.0226 73.9437 15.0226 74.0107 15.0228C74.1446 15.0228 74.1682 15.0228 74.2391 15.1625C74.3381 15.3255 74.3346 15.5086 74.3305 15.7246C74.328 15.8563 74.3252 16 74.3454 16.1589C74.3985 17.0504 74.3985 18.2566 74.1859 19.0956C73.9732 19.8821 73.7607 20.2493 73.3887 20.564C73.0699 20.7738 72.7509 20.931 72.3259 20.9835L70.4656 21.036C69.519 20.858 69.5281 20.7179 69.5852 19.8474C69.5955 19.6916 69.6072 19.5124 69.6152 19.3054L69.6152 18.676C69.6152 14.7429 66.4262 11.5965 62.4404 11.5965C58.4543 11.5965 55.2654 14.7429 55.2654 18.676C55.2654 19.0956 55.2654 19.4628 55.3185 19.8299C55.3346 20.0684 55.3513 20.2784 55.366 20.4635C55.4238 21.1924 55.4509 21.5341 55.2931 21.6968C55.154 21.8403 54.871 21.8444 54.3383 21.8521C54.1109 21.8554 53.838 21.8593 53.5115 21.875L23.3768 21.8225C23.2346 21.8038 23.1059 21.7884 22.9896 21.7745C22.4894 21.7148 22.2178 21.6824 22.0818 21.5294C21.9201 21.3475 21.9499 20.9953 22.0154 20.2243C22.0257 20.1034 22.0368 19.9723 22.0482 19.8299C22.1014 19.4628 22.1014 19.0431 22.1014 18.6235C22.1014 14.6906 18.9126 11.5441 14.9264 11.5441C10.9403 11.5441 7.75148 14.6906 7.75148 18.6235C7.75148 18.9383 7.75148 19.3054 7.80463 19.62C7.90285 21.1221 7.5473 21.102 6.61224 21.0489C6.53545 21.0445 6.4543 21.0399 6.36964 21.036C6.18995 21.019 6.00616 21.0021 5.81998 20.985L5.81782 20.9849C4.84822 20.8958 3.81481 20.8006 2.96821 20.6689C2.17099 20.5115 1.58636 20.3541 1.32062 20.1444C0.602062 19.4826 0.617537 17.5428 0.627575 16.2833C0.628675 16.1454 0.629712 16.0158 0.629712 15.8968ZM33.0043 2.20694C32.7552 2.20239 32.5692 2.42293 32.6057 2.6694L33.3685 7.82074C33.4749 8.60743 33.6874 8.81715 34.4847 8.81715C35.9438 8.84116 38.5378 8.97496 40.9227 9.09796C43.75 9.24379 46.2834 9.37446 46.2834 9.2891C46.4245 9.21958 46.7421 8.91423 47.1354 8.53625C47.4981 8.18768 47.9249 7.77723 48.3368 7.43315C48.5531 7.25245 48.5388 6.91344 48.3059 6.75471C46.2113 5.32714 43.3693 3.81955 40.7561 2.94386C38.4756 2.35528 34.3832 2.2321 33.0043 2.20694ZM31.4553 8.0306C31.5387 8.77021 31.5239 8.76928 30.9768 8.73424C30.8255 8.72455 30.6338 8.71228 30.3923 8.71228C28.3494 8.67281 25.9746 8.54388 23.6089 8.41545C22.8357 8.37348 22.0634 8.33155 21.3041 8.29283C20.7988 8.26905 20.1411 8.24529 19.4837 8.22153C18.6889 8.19281 17.8947 8.16411 17.3712 8.13546C16.9992 8.13546 16.8397 7.97809 16.6803 7.76836C16.4676 7.45364 16.0956 6.77196 15.9893 6.40488C15.8831 6.14264 15.8831 6.03779 16.2551 5.77555C16.5741 5.3561 18.5936 4.3072 20.1879 3.57301L20.9321 3.25843C21.4103 3.04871 21.7824 2.89134 21.9949 2.83884C23.2706 2.47175 24.5462 2.20966 25.8216 2.20966L30.206 2.16105C30.4068 2.15883 30.5786 2.3047 30.609 2.5032L31.4553 8.0306Z" fill="#C5E459"/>
<path d="M72.3259 21.4946L72.3439 22.1194L72.3743 22.1185L72.4044 22.1146L72.3259 21.4946ZM73.3888 21.0646L73.7382 21.5827L73.7697 21.5616L73.7983 21.5367L73.3888 21.0646ZM74.1859 19.5594L74.7903 19.7187L74.7927 19.7094L74.1859 19.5594ZM74.3454 16.549L74.9693 16.5126L74.9682 16.4925L74.9657 16.4724L74.3454 16.549ZM74.2392 15.5275L73.6788 15.8045L73.6894 15.8259L73.7015 15.8464L74.2392 15.5275ZM73.7075 15.3662L73.1297 15.6042L73.2683 15.9406L73.6292 15.9862L73.7075 15.3662ZM72.6447 12.6246L72.0785 12.8897L72.0844 12.9015L72.6447 12.6246ZM69.7747 10.4205L69.9325 9.81579L69.9264 9.81425L69.7747 10.4205ZM53.9367 7.57142L53.6664 8.13491L53.7634 8.1815L53.8706 8.19291L53.9367 7.57142ZM41.3407 1.60435L41.5295 1.00854L41.528 1.00804L41.3407 1.60435ZM15.9894 3.21706L16.2435 3.78807L16.2456 3.78711L15.9894 3.21706ZM9.61169 6.4425L9.42594 5.84572L9.42204 5.84697L9.61169 6.4425ZM1.799 9.77544L1.17808 9.70405L1.17774 9.70718L1.799 9.77544ZM1.37383 15.6889L0.74983 15.6536L0.74883 15.6712L0.74883 15.6889L1.37383 15.6889ZM1.32067 20.6345L0.891617 21.089L0.908992 21.1054L0.927567 21.1204L1.32067 20.6345ZM2.96825 21.1721L2.84429 21.7847L2.85696 21.7872L2.86974 21.7892L2.96825 21.1721ZM70.4838 22.1731L72.3439 22.1194L72.3078 20.8699L70.4477 20.9236L70.4838 22.1731ZM72.4044 22.1146C72.9609 22.0441 73.3729 21.8291 73.7382 21.5827L73.0393 20.5464C72.7669 20.7301 72.541 20.8374 72.2474 20.8745L72.4044 22.1146ZM73.7983 21.5367C74.3033 21.0989 74.5615 20.5864 74.7903 19.7187L73.5815 19.4001C73.3852 20.145 73.2183 20.3851 72.9793 20.5924L73.7983 21.5367ZM74.7927 19.7094C75.0294 18.7519 75.023 17.4349 74.9693 16.5126L73.7214 16.5852C73.7742 17.4906 73.7678 18.6467 73.5792 19.4094L74.7927 19.7094ZM74.9657 16.4724C74.9454 16.3081 74.9572 16.1971 74.9572 15.9777C74.9572 15.79 74.9473 15.4962 74.7767 15.2086L73.7015 15.8464C73.6904 15.8276 73.7072 15.8295 73.7072 15.9777C73.7072 16.0944 73.6923 16.3596 73.725 16.6255L74.9657 16.4724ZM74.7994 15.2505C74.775 15.2014 74.7145 15.0759 74.6068 14.9711C74.4545 14.8231 74.2822 14.7774 74.1559 14.7646C74.0874 14.7576 73.973 14.7591 73.9638 14.759C73.9207 14.7584 73.8648 14.7561 73.786 14.7461L73.6292 15.9862C73.763 16.0032 73.8665 16.0077 73.9464 16.0089C73.9797 16.0092 74.02 16.0091 74.0317 16.0092C74.053 16.0092 74.0459 16.0099 74.03 16.0082C74.0112 16.0064 73.9619 15.9999 73.9012 15.9752C73.8348 15.9482 73.7788 15.9095 73.7353 15.8672C73.6968 15.8299 73.6765 15.7977 73.672 15.7905C73.6675 15.7831 73.6689 15.7844 73.6788 15.8045L74.7994 15.2505ZM74.2854 15.1281C74.1605 14.825 74.0414 14.4477 73.8652 13.9486C73.6957 13.4684 73.4868 12.9176 73.2049 12.3476L72.0844 12.9015C72.3342 13.4067 72.5238 13.9042 72.6864 14.3647C72.8424 14.8064 72.9888 15.2622 73.1297 15.6042L74.2854 15.1281ZM73.2107 12.3595C72.942 11.7859 72.5847 11.2595 72.0439 10.8171C71.5062 10.3772 70.8204 10.0476 69.9325 9.81579L69.6168 11.0253C70.3767 11.2236 70.8867 11.4854 71.2524 11.7846C71.6153 12.0815 71.8689 12.4421 72.0785 12.8897L73.2107 12.3595ZM69.9264 9.81425C64.7452 8.51752 59.0829 7.49086 54.0029 6.94994L53.8706 8.19291C58.8886 8.72722 64.4935 9.7431 69.6229 11.0268L69.9264 9.81425ZM54.2071 7.00792C52.1416 6.01684 50.1324 4.89354 48.0241 3.81024C45.9348 2.73676 43.7854 1.72334 41.5295 1.00854L41.152 2.20015C43.3073 2.88309 45.3832 3.85869 47.4528 4.92206C49.5032 5.97561 51.5866 7.13699 53.6664 8.13491L54.2071 7.00792ZM41.528 1.00804C39.1228 0.252985 36.0548 0.0386729 33.0168 0.00499788C31.4907 -0.0119146 29.9571 0.0168854 28.5016 0.0496604C27.0418 0.0825353 25.6665 0.119235 24.4398 0.119235L24.4398 1.36924C25.6846 1.36924 27.0795 1.33201 28.5297 1.29935C29.984 1.2666 31.4996 1.23826 33.003 1.25492C36.0237 1.28841 38.935 1.50416 41.1536 2.20065L41.528 1.00804ZM24.4398 0.119235C21.2527 0.119235 18.577 1.36854 15.7331 2.64702L16.2456 3.78711C19.1417 2.48512 21.5681 1.36924 24.4398 1.36924L24.4398 0.119235ZM15.7352 2.64606C14.3702 3.25354 13.2622 3.9178 12.2694 4.48977C11.266 5.06774 10.3893 5.5459 9.42594 5.84572L9.79743 7.03926C10.9068 6.69397 11.8902 6.15072 12.8932 5.5729C13.9067 4.98909 14.9511 4.36319 16.2435 3.78807L15.7352 2.64606ZM9.42204 5.84697C8.74033 6.06405 7.94093 6.23624 7.09118 6.41169C6.25433 6.58447 5.36791 6.76053 4.56277 6.98231C3.76296 7.20263 2.98559 7.48264 2.37998 7.88904C1.761 8.30442 1.27184 8.88848 1.17808 9.70405L2.41992 9.84681C2.45902 9.50662 2.65414 9.21043 3.07651 8.92698C3.51228 8.63456 4.13334 8.39716 4.89474 8.18744C5.6508 7.97916 6.48836 7.81252 7.34393 7.63587C8.18659 7.46189 9.04806 7.27791 9.80133 7.03804L9.42204 5.84697ZM1.17774 9.70718C0.962904 11.663 0.855705 13.7792 0.74983 15.6536L1.99783 15.7241C2.10453 13.8354 2.20992 11.7586 2.42027 9.84367L1.17774 9.70718ZM0.74883 15.6889C0.74883 15.5645 0.79588 15.4626 0.847117 15.3962C0.870104 15.3665 0.891567 15.3466 0.905204 15.3352C0.918879 15.3239 0.928404 15.318 0.930492 15.3167C0.932629 15.3154 0.923104 15.3212 0.890979 15.3351C0.858167 15.3492 0.824292 15.3624 0.771005 15.3835C0.68878 15.4162 0.52498 15.4799 0.38408 15.58C0.231693 15.6882 0.00475564 15.9136 0.00475564 16.2801L1.25475 16.2801C1.25475 16.4854 1.12083 16.5899 1.10795 16.599C1.10658 16.6 1.12879 16.5864 1.23258 16.5451C1.29953 16.5186 1.4569 16.4602 1.58464 16.3819C1.70427 16.3084 1.99883 16.095 1.99883 15.6889L0.74883 15.6889ZM0.00475564 16.2801C0.00475564 16.872 -0.0225568 17.8172 0.0536181 18.6929C0.0919805 19.1339 0.158293 19.5844 0.276843 19.987C0.392543 20.3799 0.576105 20.7911 0.891617 21.089L1.74972 20.18C1.66663 20.1016 1.56454 19.9349 1.47595 19.634C1.39022 19.3427 1.33363 18.9836 1.29892 18.5845C1.22894 17.7802 1.25475 16.9246 1.25475 16.2801L0.00475564 16.2801ZM0.927567 21.1204C1.15618 21.3054 1.46334 21.4275 1.75842 21.5199C2.06852 21.617 2.43894 21.7026 2.84429 21.7847L3.09221 20.5595C2.70036 20.4802 2.37988 20.4046 2.13193 20.327C1.86894 20.2446 1.7509 20.1786 1.71377 20.1486L0.927567 21.1204ZM2.86974 21.7892C3.90448 21.9545 5.20852 22.0644 6.3097 22.1705L6.4297 20.9262C5.29869 20.8172 4.05164 20.7121 3.06676 20.5549L2.86974 21.7892ZM53.5126 21.7835L23.378 21.7297L23.3757 22.9797L53.5104 23.0335L53.5126 21.7835Z" fill="#8DC14B"/>
</g>
<defs>
<clipPath id="clip0_55_669">
<rect width="75" height="25" fill="white"/>
</clipPath>
</defs>
</svg>
