<svg width="63" height="45" viewBox="0 0 63 45" fill="none" xmlns="http://www.w3.org/2000/svg">
<path d="M35.2481 22.7363C32.2463 19.9219 27.3769 19.9219 24.375 22.7363C21.3731 19.9219 16.5038 19.9219 13.5019 22.7363C10.5 25.5506 10.5 30.1163 13.5019 32.9306L24.375 43.125L35.2481 32.9306C38.25 30.1163 38.25 25.5506 35.2481 22.7363Z" fill="#C5E459"/>
<path fill-rule="evenodd" clip-rule="evenodd" d="M22.5 19.6313C25.8806 17.0363 30.8569 17.2181 34.0144 20.1769C37.4119 23.3644 37.4119 28.5544 34.0144 31.74L23.1412 41.9344C22.9675 42.0973 22.7382 42.188 22.5 42.188C22.2618 42.188 22.0325 42.0973 21.8588 41.9344L10.9856 31.74C7.58812 28.5525 7.58812 23.3625 10.9856 20.1769C14.1431 17.2181 19.1194 17.0344 22.5 19.6313ZM32.7319 21.5438C30.09 19.0688 25.7831 19.0688 23.1412 21.5438C22.9675 21.7067 22.7382 21.7974 22.5 21.7974C22.2618 21.7974 22.0325 21.7067 21.8588 21.5438C19.2169 19.0688 14.91 19.0688 12.2681 21.5438C9.66188 23.9906 9.66188 27.9263 12.2681 30.3713L22.5 39.9656L32.7319 30.3713C35.3381 27.9263 35.3381 23.9906 32.7319 21.5456V21.5438ZM22.5 4.6875C21.2568 4.6875 20.0645 5.18136 19.1854 6.06044C18.3064 6.93951 17.8125 8.1318 17.8125 9.375C17.8125 10.6182 18.3064 11.8105 19.1854 12.6896C20.0645 13.5686 21.2568 14.0625 22.5 14.0625C23.7432 14.0625 24.9355 13.5686 25.8146 12.6896C26.6936 11.8105 27.1875 10.6182 27.1875 9.375C27.1875 8.1318 26.6936 6.93951 25.8146 6.06044C24.9355 5.18136 23.7432 4.6875 22.5 4.6875ZM15.9375 9.375C15.9375 8.5132 16.1072 7.65984 16.437 6.86364C16.7668 6.06744 17.2502 5.344 17.8596 4.73461C18.469 4.12523 19.1924 3.64184 19.9886 3.31204C20.7848 2.98224 21.6382 2.8125 22.5 2.8125C23.3618 2.8125 24.2152 2.98224 25.0114 3.31204C25.8076 3.64184 26.531 4.12523 27.1404 4.73461C27.7498 5.344 28.2332 6.06744 28.563 6.86364C28.8928 7.65984 29.0625 8.5132 29.0625 9.375C29.0625 11.1155 28.3711 12.7847 27.1404 14.0154C25.9097 15.2461 24.2405 15.9375 22.5 15.9375C20.7595 15.9375 19.0903 15.2461 17.8596 14.0154C16.6289 12.7847 15.9375 11.1155 15.9375 9.375Z" fill="#8DC14B"/>
<path d="M56.0654 29.168C53.9307 27.1667 50.468 27.1667 48.3334 29.168C46.1987 27.1667 42.736 27.1667 40.6014 29.168C38.4667 31.1693 38.4667 34.416 40.6014 36.4173L48.3334 43.6667L56.0654 36.4173C58.2 34.416 58.2 31.1693 56.0654 29.168Z" fill="#C5E459"/>
<path fill-rule="evenodd" clip-rule="evenodd" d="M47 26.96C49.404 25.1147 52.9427 25.244 55.188 27.348C57.604 29.6147 57.604 33.3053 55.188 35.5707L47.456 42.82C47.3324 42.9359 47.1694 43.0003 47 43.0003C46.8306 43.0003 46.6676 42.9359 46.544 42.82L38.812 35.5707C36.396 33.304 36.396 29.6133 38.812 27.348C41.0573 25.244 44.596 25.1133 47 26.96ZM54.276 28.32C52.3973 26.56 49.3347 26.56 47.456 28.32C47.3324 28.4359 47.1694 28.5003 47 28.5003C46.8306 28.5003 46.6676 28.4359 46.544 28.32C44.6653 26.56 41.6027 26.56 39.724 28.32C37.8707 30.06 37.8707 32.8587 39.724 34.5973L47 41.42L54.276 34.5973C56.1293 32.8587 56.1293 30.06 54.276 28.3213V28.32ZM47 16.3333C46.1159 16.3333 45.2681 16.6845 44.643 17.3096C44.0179 17.9348 43.6667 18.7826 43.6667 19.6667C43.6667 20.5507 44.0179 21.3986 44.643 22.0237C45.2681 22.6488 46.1159 23 47 23C47.8841 23 48.7319 22.6488 49.357 22.0237C49.9821 21.3986 50.3333 20.5507 50.3333 19.6667C50.3333 18.7826 49.9821 17.9348 49.357 17.3096C48.7319 16.6845 47.8841 16.3333 47 16.3333ZM42.3333 19.6667C42.3333 19.0538 42.454 18.447 42.6886 17.8808C42.9231 17.3146 43.2668 16.8002 43.7002 16.3668C44.1335 15.9335 44.648 15.5898 45.2141 15.3552C45.7803 15.1207 46.3872 15 47 15C47.6128 15 48.2197 15.1207 48.7859 15.3552C49.352 15.5898 49.8665 15.9335 50.2998 16.3668C50.7332 16.8002 51.0769 17.3146 51.3114 17.8808C51.546 18.447 51.6667 19.0538 51.6667 19.6667C51.6667 20.9043 51.175 22.0913 50.2998 22.9665C49.4247 23.8417 48.2377 24.3333 47 24.3333C45.7623 24.3333 44.5753 23.8417 43.7002 22.9665C42.825 22.0913 42.3333 20.9043 42.3333 19.6667Z" fill="#8DC14B"/>
</svg>
