<svg width="70" height="70" viewBox="0 0 70 70" fill="none" xmlns="http://www.w3.org/2000/svg">
<path d="M46.368 10.8276C46.3512 5.21641 42.6188 2.73561 37.8644 4.90981V5.81421C42.1904 3.88081 45.5742 6.16001 45.5882 11.277L45.913 11.095L46.4044 12.2402L46.368 10.8262V10.8276Z" fill="#8DC14B"/>
<path d="M44.0104 9.95403C44.4906 9.67403 45.1556 9.71323 45.8906 10.1374C47.3494 10.9802 48.5282 13.0214 48.5226 14.6986C48.5212 15.5316 48.2272 16.1168 47.7526 16.3926L46.9 16.8882C47.3746 16.6124 47.6686 16.0272 47.67 15.1942C47.6756 13.517 46.4968 11.4758 45.038 10.633C44.303 10.2102 43.638 10.171 43.1578 10.4496L44.0104 9.95403Z" fill="#8DC14B"/>
<path d="M42.0644 9.69783C42.7014 9.32683 43.5862 9.37863 44.562 9.94283C46.4996 11.0628 48.0662 13.7746 48.0592 16.002C48.0564 17.108 47.6672 17.8878 47.0372 18.2532L45.115 19.369C45.745 19.0036 46.1356 18.2252 46.1384 17.1178C46.1454 14.8904 44.5788 12.1786 42.6398 11.0586C41.6654 10.4958 40.7806 10.4426 40.1422 10.8136L42.0644 9.69783Z" fill="#57772E"/>
<path d="M42.6398 11.06C40.7022 9.93998 39.1258 10.8374 39.1188 13.0662C39.1132 15.2922 40.6784 18.0054 42.6188 19.1254C44.5564 20.2454 46.1328 19.3466 46.1384 17.1178C46.1454 14.8904 44.5788 12.18 42.6398 11.06Z" fill="#57772E"/>
<path d="M42.553 12.3102C41.216 11.5388 40.1296 12.1576 40.1254 13.6948C40.1212 15.2306 41.2006 17.101 42.5376 17.8738C43.8746 18.6452 44.9624 18.0264 44.9666 16.4892C44.9708 14.9534 43.89 13.083 42.553 12.3102Z" fill="#384F1B"/>
<path d="M42.882 17.472C41.5436 16.6992 40.4642 14.8288 40.4684 13.2916C40.4684 12.859 40.5566 12.4992 40.7106 12.2234C40.3466 12.5006 40.1268 13.0046 40.1254 13.6934C40.1212 15.2306 41.2006 17.101 42.5376 17.8738C43.498 18.4282 44.3296 18.2644 44.7244 17.5588C44.2778 17.899 43.6184 17.8962 42.8806 17.4706L42.882 17.472Z" fill="#8DC14B"/>
<path d="M40.1492 4.02643C41.7102 4.93223 42.679 6.85863 42.686 9.58863L42.7224 11.004L45.6246 12.6896L45.5882 11.2784C45.5812 8.54423 44.6124 6.61783 43.0514 5.71203L40.1492 4.02643Z" fill="#47740E"/>
<path d="M45.1192 19.7596C44.9652 23.24 44.4794 26.2556 44.4794 26.2556C44.2414 29.5316 45.1206 31.962 44.198 32.8538C44.1462 35.5222 43.316 39.039 43.316 39.039L34.3364 39.5542L28.7966 29.3832C29.645 26.5734 28.8624 26.5258 28.6552 25.5108C28.6132 25.3092 28.5852 25.2 28.5852 25.2C29.2292 28.2562 27.0872 15.0472 29.7122 10.752C31.9704 7.0546 44.9848 7.2898 45.654 11.725C46.284 15.183 46.235 16.7916 45.1192 19.7596Z" fill="#E9F6D9"/>
<path d="M45.5882 11.277C45.5826 9.08878 44.9582 7.41857 43.911 6.37697C42.5068 4.98117 41.475 3.67078 36.2614 3.16398C18.0054 1.38878 25.6256 23.863 25.6256 23.863L29.7136 24.136C29.3314 13.8628 32.7586 12.9542 34.4428 13.118C35.693 13.2384 36.9516 13.3196 38.1948 13.1362C40.8828 12.7414 42.238 11.7712 43.561 10.4244C43.622 10.3645 43.696 10.3195 43.7772 10.293C43.8585 10.2664 43.9448 10.2591 44.0294 10.2714C44.114 10.2837 44.1945 10.3155 44.2648 10.3641C44.3351 10.4127 44.3932 10.477 44.4346 10.5518C46.0502 13.4078 45.1192 19.7596 45.1192 19.7596C47.2584 16.0804 45.5882 11.277 45.5882 11.277Z" fill="#8DC14B"/>
<path d="M26.7582 20.9986C27.3966 20.6276 28.28 17.3586 29.2558 17.9228C31.1948 19.0428 32.7614 21.7546 32.7558 23.982C32.7516 25.088 32.361 25.8678 31.731 26.2332L29.8102 27.349C30.4402 26.9836 30.8308 26.2052 30.8322 25.0978C30.8392 22.8718 29.274 20.1586 27.335 19.0386C26.3592 18.4758 25.4758 18.4226 24.8374 18.7936L26.7582 21V20.9986Z" fill="#8DC14B"/>
<path d="M27.335 19.04C25.396 17.92 23.821 18.8174 23.814 21.0462C23.8084 23.2722 25.3736 25.9854 27.3126 27.1054C29.2516 28.2254 30.8266 27.3266 30.8336 25.0978C30.8392 22.8704 29.274 20.1586 27.335 19.0386V19.04Z" fill="#384F1B"/>
<path d="M25.1328 20.0088C25.613 19.7302 26.278 19.7708 27.0116 20.1936C28.4704 21.0364 29.6492 23.0776 29.6436 24.7534C29.6436 25.5864 29.3496 26.173 28.8736 26.4474L27.783 27.083C28.2576 26.8072 28.5516 26.2206 28.553 25.389C28.5586 23.7118 27.3798 21.6706 25.921 20.8278C25.186 20.4036 24.521 20.3644 24.0408 20.643L25.1328 20.0088Z" fill="#8DC14B"/>
<path d="M25.921 20.8278C24.4622 19.985 23.275 20.6612 23.2708 22.3384C23.2666 24.0142 24.444 26.0554 25.9028 26.8982C27.363 27.741 28.5488 27.0648 28.553 25.3876C28.5586 23.7118 27.3798 21.6706 25.921 20.8278Z" fill="#DEFDB7"/>
<path d="M24.549 20.062L24.5868 23.2582L27.4876 24.9452L27.4512 21.7504C27.433 15.7556 31.6624 8.43079 36.8774 5.41939C39.5024 3.90739 41.8852 3.76739 43.6072 4.76559L40.7022 3.07999C38.983 2.07759 36.6002 2.21619 33.9766 3.73379C28.7602 6.74519 24.5308 14.0714 24.549 20.062Z" fill="#DEFDB7"/>
<path d="M36.8788 5.41941C31.6624 8.43081 27.4344 15.7556 27.4512 21.749L27.4554 21.9254H28.245L28.2282 21.2996C28.2128 15.8004 32.095 9.07621 36.8802 6.31261C40.6532 4.13421 43.8704 5.06661 45.0744 8.25021H46.0376C44.9568 4.20981 41.2608 2.88961 36.8788 5.41941Z" fill="#8DC14B"/>
<path d="M44.4794 26.257C44.4794 26.257 44.8658 37.6992 40.3606 38.7702C34.8908 40.068 31.7814 32.4898 27.1586 31.5756C27.1586 31.5756 24.773 32.9812 22.1466 34.93C20.0995 36.444 18.4352 38.4162 17.2871 40.6888C16.1389 42.9613 15.5386 45.4711 15.5344 48.0172L15.2754 62.0494C15.2754 63.4074 16.0482 64.638 17.2732 65.226C20.9762 67.0012 28.9086 70.7294 44.45 62.0494L44.4948 62.0214C50.3412 58.3716 53.6788 55.3224 54.488 46.9798C54.488 46.9798 57.1718 19.8548 44.4794 26.257Z" fill="#57772E"/>
<path d="M45.5504 28.014C45.402 28.063 45.2564 28.1036 45.1024 28.1638C44.856 31.0618 43.4336 34.7998 39.8776 36.8228C39.8776 36.8228 35.8008 39.1888 30.8896 34.0732C29.7276 34.055 28.4886 31.8388 27.1586 31.5756C27.1586 31.5756 39.1454 55.8796 44.45 62.0494C44.45 62.0494 44.863 61.761 45.4888 61.2822L45.4188 61.1492C45.4188 61.1492 50.0346 48.6612 45.5504 28.014Z" fill="#8DC14B"/>
<path d="M44.1154 34.433L41.7116 40.7708L46.431 54.9276L45.4888 61.2822L44.45 62.0494L40.8842 57.3538L39.865 41.8124L36.2992 38.8416L44.1154 34.433Z" fill="#4D672B"/>
<path d="M44.4794 26.257C44.4794 26.257 44.709 31.9088 39.8776 36.8228C39.8776 36.8228 43.3804 39.3484 44.709 39.3484C44.709 39.3484 47.1688 33.7666 46.7936 31.0632C46.4184 28.3598 44.9414 28.6314 44.4794 26.257ZM27.1586 31.5756C27.1586 31.5756 27.9174 30.919 28.7966 29.3832C28.7966 29.3832 33.3858 37.2008 39.8776 36.8228C39.8776 36.8228 39.0558 40.7554 36.9964 42.6188C36.9964 42.6188 29.9782 38.934 27.1586 31.5756Z" fill="#47740E"/>
<path d="M27.5534 45.0324H31.9018L30.7496 49.2002L44.45 62.0494L27.16 31.5756C27.16 31.5756 23.7118 38.9816 27.5534 45.0324ZM50.3622 35.1092C50.3622 35.1092 49.0784 31.416 44.4794 26.257C44.4794 26.257 46.9168 47.859 45.4188 61.1492C45.4188 61.1492 50.7444 45.6008 50.7444 40.7372L48.0046 38.7128L50.3622 35.1092Z" fill="#8DC14B"/>
<path d="M40.159 24.9242C36.4672 27.349 30.3646 25.6508 28.9576 24.2368C28.7518 24.7198 29.0136 25.0152 28.7966 25.4954C34.251 29.1018 40.6952 26.2556 40.4684 26.0372C40.3354 25.5654 40.2892 25.3974 40.159 24.9242Z" fill="#8DC14B"/>
<path d="M43.8522 24.514C43.8005 24.3587 43.7187 24.2152 43.6114 24.0915C43.5042 23.9679 43.3737 23.8665 43.2273 23.7933C43.0809 23.7202 42.9215 23.6765 42.7582 23.6649C42.595 23.6533 42.431 23.674 42.2758 23.7258L39.4926 24.6526C39.1788 24.7571 38.9195 24.982 38.7715 25.2778C38.6236 25.5736 38.5992 25.916 38.7037 26.2297C38.8082 26.5435 39.0331 26.8029 39.3289 26.9508C39.6246 27.0987 39.967 27.1231 40.2808 27.0186L43.0626 26.0918C43.2182 26.0402 43.362 25.9585 43.4859 25.8512C43.6099 25.744 43.7114 25.6133 43.7847 25.4667C43.8581 25.3202 43.9018 25.1606 43.9134 24.9971C43.925 24.8336 43.9042 24.6695 43.8522 24.514Z" fill="#8DC14B"/>
</svg>
